<svg xmlns="http://www.w3.org/2000/svg" viewBox="0 0 390.5 45.78">
    <defs>
    <style>.cls-1{fill:#172B4D;}.cls-2{fill:#172B4D;}.cls-3{fill:#172B4D;}.cls-4{fill:#172B4D;}.cls-5{fill:#172B4D;}.cls-6{fill:#172B4D;}.cls-7{fill:#172B4D;}.cls-8{fill:#172B4D;}.cls-9{fill:#172B4D;}.cls-10{fill:#172B4D;}.cls-11{fill:#f0a5e6;}.cls-12{fill:#da9ef1;}.cls-13{fill:#fbaeda;}.cls-14{fill:#6283fd;}.cls-15{fill:#a48efd;}.cls-16{fill:#908afd;}.cls-17{fill:#fefefe;}</style>
    </defs>
    <g id="Camada_2" data-name="Camada 2"><g id="Camada_1-2" data-name="Camada 1">
    <path class="cls-1" d="M334.18,44.86c-2.27,0-4.45,0-6.63,0a1.07,1.07,0,0,1-1.05-.64c-2.18-3.7-4.43-7.35-6.61-11.06A1.91,1.91,0,0,0,318,32q-3.5.1-7,0c-.94,0-1.24.2-1.22,1.18.06,3.54,0,7.09,0,10.64,0,.84-.21,1.09-1.06,1.05-1.6-.07-3.2-.05-4.8,0-.72,0-1-.09-1-.93q0-21.07,0-42.14c0-.59.06-.91.79-.9,5,0,10.1-.39,15.08.11,6.93.7,12.43,4.23,13.56,12.36a19.15,19.15,0,0,1-1.44,11.09,10.8,10.8,0,0,1-4.81,5.07c-.71.37-.64.52-.26,1.17,2.57,4.34,5.12,8.7,7.82,13A10.09,10.09,0,0,1,334.18,44.86Z"/>
    <path class="cls-2" d="M0,22.84C0,16,.05,9.21,0,2.39,0,1.26.17.85,1.45.88,6,1,10.6.76,15.16,1c5.66.24,10.71,3.2,12.9,9a24.23,24.23,0,0,1,1.63,8.86c0,2.82,0,5.64,0,8.46-.06,4.73-1.12,9.19-4.25,12.88A12.68,12.68,0,0,1,18.1,44.3c-5.72,1.11-11.52.34-17.29.57-1,.05-.78-.63-.78-1.16Q0,33.27,0,22.84Z"/>
    <path class="cls-3" d="M120,29.15c0,4.78,0,9.56,0,14.33,0,1.08-.31,1.46-1.41,1.4-1.59-.08-3.2,0-4.8,0-.65,0-1-.07-1-.86,0-9.46-.17-18.92.1-28.38a16,16,0,0,1,5.58-12.3A13.91,13.91,0,0,1,126.2.16a17.94,17.94,0,0,1,9.92,1.36c4.35,2.1,6.65,5.74,7.81,10.24a31.32,31.32,0,0,1,.78,7.46c.11,8.09,0,16.19.08,24.28,0,1.17-.32,1.47-1.44,1.38a30.14,30.14,0,0,0-4.25,0c-1.15.08-1.53-.17-1.52-1.44q.09-13.63,0-27.28a10.67,10.67,0,0,0-2-6.65A6.63,6.63,0,0,0,131.43,7c-2.45-.35-5-.49-7.31.71a6.76,6.76,0,0,0-3.24,3.76,11.9,11.9,0,0,0-.87,4.56C120.09,20.42,120,24.79,120,29.15Z"/>
    <path class="cls-4" d="M38.75,29.71c0-4.27,0-8.55,0-12.82A18.19,18.19,0,0,1,43.08,4.46a12.66,12.66,0,0,1,7.38-4A19.3,19.3,0,0,1,61,1.15a13.47,13.47,0,0,1,7.71,7.49,22.82,22.82,0,0,1,1.68,9.54q-.07,12.69,0,25.38c0,1.07-.27,1.39-1.35,1.32a35.72,35.72,0,0,0-4.39,0c-1,.07-1.18-.3-1.18-1.22,0-8.91.09-17.82,0-26.74,0-3-.45-6.06-3-8.28A6.57,6.57,0,0,0,57.1,7a11.4,11.4,0,0,0-6.91.63,7.63,7.63,0,0,0-4.27,6.78c-.68,9.61-.17,19.24-.28,28.86,0,1.17-.19,1.71-1.52,1.58a30.13,30.13,0,0,0-4.25,0c-.88,0-1.15-.2-1.14-1.11C38.77,39.08,38.75,34.4,38.75,29.71Z"/>
    <path class="cls-5" d="M233.73,28.9c0,5.65,0,10.19,0,14.74,0,1-.29,1.3-1.29,1.24-1.64-.08-3.29-.05-4.94,0-.67,0-1-.11-1-.87,0-9-.1-18,.08-27a19.5,19.5,0,0,1,3-10.74A13.22,13.22,0,0,1,238.49.42,18.19,18.19,0,0,1,250,1.58a13.43,13.43,0,0,1,6.84,7.36,24.61,24.61,0,0,1,1.66,9.54c0,4.91,0,9.82,0,14.73,0,1.12-.35,1.36-1.37,1.3a35.72,35.72,0,0,0-4.39,0c-1.11.08-1.46-.2-1.44-1.38.06-6,.11-11.91,0-17.86-.08-4.5-2.63-8.3-7.78-8.38-2.15,0-4.22,0-6.09,1.19a7.78,7.78,0,0,0-3.4,6C233.37,19.39,234,24.7,233.73,28.9Z"/>
    <path class="cls-6" d="M185.09,32.85a19.36,19.36,0,0,1-2.63,6.6,13.46,13.46,0,0,1-8.08,5.63c-3.77.92-7.61,1.1-11.3-.52a13.88,13.88,0,0,1-7.6-7.74,24.05,24.05,0,0,1-1.68-9.54c.07-3.5-.1-7,0-10.51.16-4,1-7.8,3.5-11.12A13.57,13.57,0,0,1,165.93.39a18,18,0,0,1,11,1.09,13.13,13.13,0,0,1,5.46,4.6A16.34,16.34,0,0,1,185,12.92c-2.07,0-4.16,0-6.25,0-.63,0-.7-.29-.84-.75-.83-2.65-2.5-4.54-5.32-5-3.39-.6-6.78-.79-9.41,2.09A8.76,8.76,0,0,0,161,15.11c-.11,5.18-.26,10.38,0,15.55.28,4.9,2.71,8,8.26,8.21,3.29.12,6-.79,7.85-3.68.05-.07.18-.12.19-.19.24-2.25,1.77-2.32,3.54-2.17C182.22,32.94,183.6,32.85,185.09,32.85Z"/>
    <path class="cls-7" d="M359.24,23c-.06-4.23-.09-8.34,1.12-12.29,1.7-5.56,5-9.1,11.24-10.3a17,17,0,0,1,11.29,1.35A13.41,13.41,0,0,1,390,10.8c.54,2.11.49,2.12-1.7,2.12h-1c-2,0-3.85.54-4.77-2.42-.75-2.45-3.38-3.42-6.1-3.61s-5.07.1-7.23,1.88a7.46,7.46,0,0,0-2.53,5.07c-.67,5.23-.31,10.51-.27,15.76a10,10,0,0,0,2.1,6.6c2.35,2.78,5.53,3,8.78,2.53a7,7,0,0,0,6.09-5.22.78.78,0,0,1,.85-.66c1.88,0,3.76,0,5.63,0,.67,0,.71.22.57.83a16.18,16.18,0,0,1-4.17,7.88A14,14,0,0,1,379,45.27a17.13,17.13,0,0,1-10.92-1.06,14,14,0,0,1-8-10.24A44.52,44.52,0,0,1,359.24,23Z"/>
    <path class="cls-8" d="M211.73.91c2.24,0,4.07,0,5.9,0,.74,0,1.05.15,1,1-.07,1.63-.06,3.27,0,4.91,0,.76-.2,1-1,1-3.16,0-6.32-.14-9.47,0-2.26.11-4.55.41-6.27,2.22a8.44,8.44,0,0,0-2.22,4.88,84.38,84.38,0,0,0-.24,13.3c.07,2.62.39,5.28,2.48,7.38a7.63,7.63,0,0,0,5.45,2.18c3.33.1,6.67.07,10,0,1.07,0,1.3.31,1.25,1.29-.08,1.59-.06,3.19,0,4.78,0,.79-.13,1.1-1,1.08-3.38-.05-6.77.14-10.15-.06-5.67-.32-10.26-2.66-13-7.85a20,20,0,0,1-1.94-7.13,62.82,62.82,0,0,1-.25-10.17c.17-3.94.45-7.93,2.47-11.48a13.79,13.79,0,0,1,10.3-7C207.43.76,209.79,1.07,211.73.91Z"/>
    <path class="cls-9" d="M283.71,23c0,6.82,0,13.65,0,20.47,0,1.08-.17,1.54-1.38,1.44a28.71,28.71,0,0,0-4.25,0c-1,.07-1.3-.21-1.29-1.25.05-7.41,0-14.83,0-22.24,0-4.1,0-8.19,0-12.29,0-1.1-.35-1.4-1.42-1.38-3.25.06-6.5,0-9.75,0-.91,0-1.29-.16-1.24-1.17.1-1.63.05-3.27,0-4.91,0-.58.16-.78.77-.78,5.9,0,11.81,0,17.71,0,1.07,0,.74.69.74,1.2C283.72,9.06,283.71,16,283.71,23Z"/><path class="cls-3" d="M95.6,22.85c0,6.91,0,13.83,0,20.74,0,1-.16,1.38-1.25,1.3a32.15,32.15,0,0,0-4.39,0c-1,.07-1.28-.23-1.28-1.26,0-8,0-16,0-24,0-3.54,0-7.09,0-10.64,0-1.06-.31-1.26-1.3-1.25-3.25.07-6.5,0-9.75,0-.81,0-1.13-.15-1.09-1,.08-1.63.06-3.27,0-4.91,0-.72.2-.92.92-.91,5.72,0,11.44,0,17.16,0,1.09,0,.89.61.89,1.22Z"/>
    <path class="cls-10" d="M342.76,22.9c0-6.91,0-13.82,0-20.72,0-1,.17-1.37,1.25-1.29a40.27,40.27,0,0,0,4.53,0c.88,0,1.14.21,1.14,1.12,0,5.27,0,10.54,0,15.81,0,8.6,0,17.19,0,25.78,0,1-.17,1.37-1.25,1.29a32.16,32.16,0,0,0-4.39,0c-1,.07-1.29-.22-1.28-1.25C342.78,36.72,342.76,29.81,342.76,22.9Z"/>
    <path class="cls-11" d="M255,44.83a3.81,3.81,0,0,1-3.64-3.54,3.76,3.76,0,0,1,3.47-3.53,3.56,3.56,0,0,1,3.6,3.5A3.76,3.76,0,0,1,255,44.83Z"/>
    <path class="cls-12" d="M213.41,22.91a3.46,3.46,0,1,1-6.91-.31,3.57,3.57,0,0,1,3.3-3.33A3.65,3.65,0,0,1,213.41,22.91Z"/>
    <path class="cls-13" d="M292.19,7.74a2.93,2.93,0,0,1-3.26-3.28A3.32,3.32,0,0,1,292.35.91a3.53,3.53,0,0,1,3.45,3.36C295.83,6.43,294.47,7.74,292.19,7.74Z"/>
    <path class="cls-14" d="M54.42,26a3.29,3.29,0,0,1-3.31-3.5,3.34,3.34,0,0,1,3.39-3.28,3.31,3.31,0,0,1,3.44,3.38A3.23,3.23,0,0,1,54.42,26Z"/>
    <path class="cls-15" d="M128.68,19.2a3.15,3.15,0,0,1,3.43,3.47A3.11,3.11,0,0,1,128.7,26a3.41,3.41,0,1,1,0-6.81Z"/>
    <path class="cls-16" d="M104.36,7.73a3.3,3.3,0,0,1-3.54-3.4A3.52,3.52,0,0,1,104.19.92a3.34,3.34,0,0,1,3.49,3.6C107.67,6.6,106.5,7.74,104.36,7.73Z"/>
    <path class="cls-17" d="M309.8,16.34c0-2.45,0-4.91,0-7.36,0-1,.29-1.31,1.26-1.25,3,.15,6-.33,8.91.53a8.29,8.29,0,0,1,5.54,7.12A9.32,9.32,0,0,1,323.79,22a7.14,7.14,0,0,1-5.34,2.95c-2.55.15-5.11,0-7.67.05-.78,0-1-.2-1-1C309.83,21.43,309.8,18.88,309.8,16.34Z"/>
    <path class="cls-17" d="M6.89,22.75c0-4.54,0-9.09,0-13.63,0-1.08.31-1.44,1.41-1.4,2.63.09,5.28-.17,7.89.31A7,7,0,0,1,22,13.16a24.91,24.91,0,0,1,.83,7.29c0,3.35,0,6.69-.26,10a8,8,0,0,1-7.7,7.27c-2.28,0-4.57,0-6.85,0-.9,0-1.15-.23-1.14-1.12C6.92,32,6.89,27.39,6.89,22.75Z"/>
    </g>
    </g>
</svg>